<svg xmlns="http://www.w3.org/2000/svg" xmlns:xlink="http://www.w3.org/1999/xlink" width="1024" zoomAndPan="magnify" viewBox="0 0 768 767.999994" height="1024" preserveAspectRatio="xMidYMid meet" version="1.0"><path fill="#e28e43" d="M 766.03125 185.109375 C 766.03125 135.484375 746.339844 87.90625 711.246094 52.816406 C 676.15625 17.722656 628.578125 -1.96875 578.953125 -1.96875 L 185.109375 -1.96875 C 135.484375 -1.96875 87.90625 17.722656 52.816406 52.816406 C 17.722656 87.90625 -1.96875 135.484375 -1.96875 185.109375 L -1.96875 578.953125 C -1.96875 628.578125 17.722656 676.15625 52.816406 711.246094 C 87.90625 746.339844 135.484375 766.03125 185.109375 766.03125 L 578.953125 766.03125 C 628.578125 766.03125 676.15625 746.339844 711.246094 711.246094 C 746.339844 676.15625 766.03125 628.578125 766.03125 578.953125 Z M 706.953125 185.109375 L 706.953125 578.953125 C 706.953125 612.902344 693.484375 645.472656 669.460938 669.460938 C 645.472656 693.484375 612.902344 706.953125 578.953125 706.953125 L 185.109375 706.953125 C 151.15625 706.953125 118.585938 693.484375 94.601562 669.460938 C 70.578125 645.472656 57.109375 612.902344 57.109375 578.953125 L 57.109375 185.109375 C 57.109375 151.15625 70.578125 118.585938 94.601562 94.601562 C 118.585938 70.578125 151.15625 57.109375 185.109375 57.109375 L 578.953125 57.109375 C 612.902344 57.109375 645.472656 70.578125 669.460938 94.601562 C 693.484375 118.585938 706.953125 151.15625 706.953125 185.109375 Z M 706.953125 185.109375 " fill-opacity="1" fill-rule="evenodd"/><path fill="#e28e43" d="M 224.492188 411.570312 L 539.570312 411.570312 C 555.875 411.570312 569.109375 398.335938 569.109375 382.03125 C 569.109375 365.726562 555.875 352.492188 539.570312 352.492188 L 224.492188 352.492188 C 208.1875 352.492188 194.953125 365.726562 194.953125 382.03125 C 194.953125 398.335938 208.1875 411.570312 224.492188 411.570312 Z M 224.492188 411.570312 " fill-opacity="1" fill-rule="evenodd"/><path fill="#e28e43" d="M 224.492188 569.109375 L 539.570312 569.109375 C 555.875 569.109375 569.109375 555.875 569.109375 539.570312 C 569.109375 523.265625 555.875 510.03125 539.570312 510.03125 L 224.492188 510.03125 C 208.1875 510.03125 194.953125 523.265625 194.953125 539.570312 C 194.953125 555.875 208.1875 569.109375 224.492188 569.109375 Z M 224.492188 569.109375 " fill-opacity="1" fill-rule="evenodd"/><path fill="#e28e43" d="M 224.492188 254.03125 L 539.570312 254.03125 C 555.875 254.03125 569.109375 240.796875 569.109375 224.492188 C 569.109375 208.1875 555.875 194.953125 539.570312 194.953125 L 224.492188 194.953125 C 208.1875 194.953125 194.953125 208.1875 194.953125 224.492188 C 194.953125 240.796875 208.1875 254.03125 224.492188 254.03125 Z M 224.492188 254.03125 " fill-opacity="1" fill-rule="evenodd"/></svg>