<svg xmlns="http://www.w3.org/2000/svg" xmlns:xlink="http://www.w3.org/1999/xlink" width="1024" zoomAndPan="magnify" viewBox="0 0 768 767.999994" height="1024" preserveAspectRatio="xMidYMid meet" version="1.0"><defs><clipPath id="8b09f5d7ca"><path d="M 6 330.9375 L 762 330.9375 L 762 436.6875 L 6 436.6875 Z M 6 330.9375 " clip-rule="nonzero"/></clipPath></defs><g clip-path="url(#8b09f5d7ca)"><path fill="#e28e43" d="M 674.351562 389.898438 C 670.066406 389.765625 666.285156 389.535156 662.5 389.535156 C 644.726562 389.535156 626.992188 389.535156 609.21875 389.582031 C 588.433594 389.628906 567.648438 389.765625 546.863281 389.765625 C 530.726562 389.765625 514.542969 389.671875 498.410156 389.671875 C 477.214844 389.671875 456.019531 389.765625 434.824219 389.808594 C 418.460938 389.808594 402.140625 389.71875 385.777344 389.765625 C 364.765625 389.765625 343.796875 389.898438 322.785156 389.945312 C 307.421875 389.992188 292.109375 389.945312 276.746094 389.945312 L 210.152344 390.082031 C 209.742188 390.082031 209.332031 390.171875 208.921875 390.082031 C 200.71875 388.039062 195.246094 392.082031 190.371094 397.941406 C 183.535156 406.164062 176.378906 414.066406 169.632812 422.332031 C 166.167969 426.558594 161.882812 428.964844 156.6875 429.191406 C 147.207031 429.601562 137.722656 429.464844 128.242188 429.511719 C 126.832031 429.511719 125.417969 429.328125 124.050781 428.964844 C 118.398438 427.46875 116.484375 422.46875 119.902344 417.792969 C 121.769531 415.203125 124.277344 413.066406 126.464844 410.703125 C 132.027344 404.617188 137.632812 398.53125 143.148438 392.398438 C 143.605469 391.851562 143.878906 391.171875 144.925781 389.445312 C 142.648438 390.261719 141.144531 390.398438 140.277344 391.171875 C 128.835938 401.347656 117.121094 411.25 106.226562 422.015625 C 100.621094 427.558594 94.648438 430.464844 87.039062 430.601562 C 71.496094 430.917969 55.996094 431.191406 40.453125 431.507812 C 33.207031 431.691406 25.957031 432.054688 18.664062 432.191406 C 16.25 432.238281 13.789062 432.101562 11.417969 431.601562 C 6.722656 430.554688 4.855469 425.695312 7.636719 421.789062 C 8.683594 420.335938 10.050781 419.109375 11.417969 417.882812 C 21.582031 408.707031 31.839844 399.574219 42.003906 390.355469 C 44.964844 387.675781 47.609375 384.628906 50.847656 381.316406 C 47.519531 376.226562 44.328125 371.410156 41.046875 366.640625 C 37.535156 361.464844 33.84375 356.421875 30.472656 351.199219 C 29.058594 349.015625 27.964844 346.566406 27.191406 344.113281 C 25.457031 338.933594 27.007812 336.480469 32.523438 335.933594 C 36.714844 335.480469 41 335.664062 45.195312 335.617188 C 64.382812 335.433594 83.527344 334.9375 102.671875 337.386719 C 108.097656 338.070312 112.109375 340.203125 115.34375 344.566406 C 122.773438 354.605469 130.566406 364.371094 137.90625 374.5 C 140.503906 378.136719 143.332031 379.542969 148.4375 378.226562 C 146.613281 375.546875 145.015625 373.136719 143.285156 370.777344 C 136.449219 361.554688 129.566406 352.332031 122.726562 343.113281 C 121.769531 341.839844 120.769531 340.523438 120.039062 339.113281 C 117.667969 334.480469 119.765625 330.621094 124.824219 330.9375 C 137.679688 331.800781 150.53125 333.027344 163.386719 334.34375 C 167.714844 334.800781 171.636719 336.890625 174.371094 340.25 C 183.304688 351.378906 192.058594 362.734375 200.808594 374.046875 C 201.765625 375.273438 202.222656 376.910156 203.085938 378.679688 C 361.347656 378.589844 519.742188 378.5 679.59375 378.40625 C 676.3125 374.820312 673.941406 372.183594 671.527344 369.59375 C 664.324219 361.691406 657.125 353.832031 649.921875 345.929688 C 647.550781 343.339844 646.546875 340.566406 648.597656 337.160156 C 651.289062 332.753906 653.976562 331.710938 659.355469 333.800781 C 666.878906 336.707031 674.261719 339.976562 681.828125 342.75 C 700.972656 349.699219 720.207031 356.332031 739.304688 363.371094 C 745.324219 365.597656 751.292969 368.230469 756.855469 371.367188 C 763.144531 374.910156 763.101562 379.363281 757.175781 383.359375 C 755.671875 384.359375 754.027344 385.175781 752.386719 385.992188 L 656.121094 434.371094 C 654.660156 435.097656 653.25 435.960938 651.746094 436.414062 C 646.867188 437.871094 643.175781 434.644531 644.179688 429.601562 C 644.589844 427.558594 645.820312 425.511719 647.140625 423.832031 C 655.890625 412.703125 664.78125 401.800781 674.351562 389.898438 Z M 669.109375 349.699219 C 668.929688 349.972656 668.699219 350.199219 668.519531 350.472656 C 676.175781 358.875 683.742188 367.371094 691.492188 375.683594 C 692.128906 376.410156 693.679688 376.636719 694.773438 376.546875 C 706.671875 375.546875 718.613281 374.410156 730.507812 373.273438 L 730.507812 372.367188 C 710.042969 364.824219 689.578125 357.285156 669.109375 349.699219 Z M 727.773438 385.722656 C 726.085938 385.265625 725.585938 384.949219 725.085938 384.996094 C 715.058594 385.675781 705.027344 386.3125 695 387.265625 C 693.222656 387.445312 691.21875 388.628906 689.988281 389.992188 C 683.558594 396.941406 677.359375 404.027344 671.117188 411.160156 C 670.339844 412.066406 669.886719 413.25 668.65625 415.472656 C 688.9375 405.253906 707.902344 395.714844 727.773438 385.722656 Z M 727.773438 385.722656 " fill-opacity="1" fill-rule="nonzero"/></g></svg>