<svg xmlns="http://www.w3.org/2000/svg" xmlns:xlink="http://www.w3.org/1999/xlink" width="1024" zoomAndPan="magnify" viewBox="0 0 768 767.999994" height="1024" preserveAspectRatio="xMidYMid meet" version="1.0"><defs><clipPath id="190d84f28c"><path d="M 0 0 L 768 0 L 768 764.988281 L 0 764.988281 Z M 0 0 " clip-rule="nonzero"/></clipPath></defs><g clip-path="url(#190d84f28c)"><path fill="#ffffff" d="M 213.332031 -3.011719 C 95.53125 -3.011719 0 92.519531 0 210.320312 L 0 551.65625 C 0 669.457031 95.53125 764.988281 213.332031 764.988281 L 554.667969 764.988281 C 672.46875 764.988281 768 669.457031 768 551.65625 L 768 210.320312 C 768 92.519531 672.46875 -3.011719 554.667969 -3.011719 Z M 640 82.320312 C 663.550781 82.320312 682.667969 101.4375 682.667969 124.988281 C 682.667969 148.539062 663.550781 167.65625 640 167.65625 C 616.449219 167.65625 597.332031 148.539062 597.332031 124.988281 C 597.332031 101.4375 616.449219 82.320312 640 82.320312 Z M 384 167.65625 C 501.800781 167.65625 597.332031 263.1875 597.332031 380.988281 C 597.332031 498.789062 501.800781 594.320312 384 594.320312 C 266.199219 594.320312 170.667969 498.789062 170.667969 380.988281 C 170.667969 263.1875 266.199219 167.65625 384 167.65625 Z M 384 252.988281 C 381.90625 252.988281 379.8125 253.039062 377.71875 253.140625 C 375.628906 253.246094 373.539062 253.398438 371.453125 253.605469 C 369.367188 253.808594 367.289062 254.066406 365.21875 254.375 C 363.144531 254.679688 361.082031 255.039062 359.027344 255.449219 C 356.972656 255.855469 354.929688 256.316406 352.898438 256.824219 C 350.867188 257.332031 348.847656 257.890625 346.84375 258.5 C 344.839844 259.109375 342.851562 259.765625 340.878906 260.46875 C 338.90625 261.175781 336.953125 261.929688 335.015625 262.730469 C 333.082031 263.535156 331.167969 264.382812 329.273438 265.277344 C 327.378906 266.171875 325.507812 267.113281 323.660156 268.101562 C 321.8125 269.089844 319.992188 270.121094 318.195312 271.199219 C 316.398438 272.277344 314.628906 273.394531 312.886719 274.558594 C 311.144531 275.722656 309.433594 276.929688 307.75 278.175781 C 306.066406 279.425781 304.417969 280.714844 302.796875 282.042969 C 301.179688 283.371094 299.59375 284.738281 298.039062 286.144531 C 296.488281 287.554688 294.972656 288.996094 293.492188 290.480469 C 292.007812 291.960938 290.566406 293.476562 289.160156 295.027344 C 287.75 296.582031 286.382812 298.167969 285.054688 299.785156 C 283.726562 301.40625 282.4375 303.054688 281.1875 304.738281 C 279.941406 306.421875 278.734375 308.132812 277.570312 309.875 C 276.40625 311.617188 275.289062 313.386719 274.210938 315.183594 C 273.132812 316.980469 272.101562 318.800781 271.113281 320.648438 C 270.125 322.496094 269.183594 324.367188 268.289062 326.261719 C 267.394531 328.15625 266.546875 330.070312 265.742188 332.003906 C 264.941406 333.941406 264.1875 335.894531 263.480469 337.867188 C 262.777344 339.839844 262.121094 341.828125 261.511719 343.832031 C 260.902344 345.835938 260.34375 347.855469 259.835938 349.886719 C 259.328125 351.917969 258.867188 353.960938 258.460938 356.015625 C 258.050781 358.070312 257.691406 360.132812 257.386719 362.207031 C 257.078125 364.277344 256.820312 366.355469 256.617188 368.441406 C 256.410156 370.527344 256.257812 372.617188 256.152344 374.707031 C 256.050781 376.800781 256 378.894531 256 380.988281 C 256 383.082031 256.050781 385.175781 256.152344 387.269531 C 256.257812 389.359375 256.410156 391.449219 256.617188 393.535156 C 256.820312 395.621094 257.078125 397.699219 257.386719 399.769531 C 257.691406 401.84375 258.050781 403.90625 258.460938 405.960938 C 258.867188 408.015625 259.328125 410.058594 259.835938 412.089844 C 260.34375 414.121094 260.902344 416.140625 261.511719 418.144531 C 262.121094 420.148438 262.777344 422.136719 263.480469 424.109375 C 264.1875 426.082031 264.941406 428.035156 265.742188 429.972656 C 266.546875 431.90625 267.394531 433.820312 268.289062 435.714844 C 269.183594 437.609375 270.125 439.480469 271.113281 441.328125 C 272.101562 443.175781 273.132812 444.996094 274.210938 446.792969 C 275.289062 448.589844 276.40625 450.359375 277.570312 452.101562 C 278.734375 453.84375 279.941406 455.554688 281.1875 457.238281 C 282.4375 458.921875 283.726562 460.570312 285.054688 462.191406 C 286.382812 463.808594 287.75 465.394531 289.15625 466.949219 C 290.566406 468.5 292.007812 470.015625 293.492188 471.496094 C 294.972656 472.980469 296.488281 474.421875 298.039062 475.828125 C 299.59375 477.238281 301.179688 478.605469 302.796875 479.933594 C 304.417969 481.261719 306.066406 482.550781 307.75 483.796875 C 309.433594 485.046875 311.144531 486.253906 312.886719 487.417969 C 314.628906 488.582031 316.398438 489.699219 318.195312 490.777344 C 319.992188 491.855469 321.8125 492.886719 323.660156 493.875 C 325.507812 494.863281 327.378906 495.804688 329.273438 496.699219 C 331.167969 497.59375 333.082031 498.441406 335.015625 499.246094 C 336.953125 500.046875 338.90625 500.800781 340.878906 501.503906 C 342.851562 502.210938 344.839844 502.867188 346.84375 503.476562 C 348.847656 504.085938 350.867188 504.644531 352.898438 505.152344 C 354.929688 505.660156 356.972656 506.121094 359.027344 506.527344 C 361.082031 506.9375 363.144531 507.296875 365.21875 507.601562 C 367.289062 507.910156 369.367188 508.167969 371.453125 508.371094 C 373.539062 508.578125 375.628906 508.730469 377.71875 508.835938 C 379.8125 508.9375 381.90625 508.988281 384 508.988281 C 386.09375 508.988281 388.1875 508.9375 390.28125 508.835938 C 392.371094 508.730469 394.460938 508.578125 396.546875 508.371094 C 398.632812 508.167969 400.710938 507.910156 402.78125 507.601562 C 404.855469 507.296875 406.917969 506.9375 408.972656 506.527344 C 411.027344 506.121094 413.070312 505.660156 415.101562 505.152344 C 417.132812 504.644531 419.152344 504.085938 421.15625 503.476562 C 423.160156 502.867188 425.148438 502.210938 427.121094 501.503906 C 429.09375 500.800781 431.046875 500.046875 432.984375 499.246094 C 434.917969 498.441406 436.832031 497.59375 438.726562 496.699219 C 440.621094 495.804688 442.492188 494.863281 444.339844 493.875 C 446.1875 492.886719 448.007812 491.855469 449.804688 490.777344 C 451.601562 489.699219 453.371094 488.582031 455.113281 487.417969 C 456.855469 486.253906 458.566406 485.046875 460.25 483.796875 C 461.933594 482.550781 463.582031 481.261719 465.203125 479.933594 C 466.820312 478.605469 468.40625 477.238281 469.960938 475.828125 C 471.511719 474.421875 473.027344 472.980469 474.507812 471.496094 C 475.992188 470.015625 477.433594 468.5 478.839844 466.949219 C 480.25 465.394531 481.617188 463.808594 482.945312 462.191406 C 484.273438 460.570312 485.5625 458.921875 486.8125 457.238281 C 488.058594 455.554688 489.265625 453.84375 490.429688 452.101562 C 491.59375 450.359375 492.710938 448.589844 493.789062 446.792969 C 494.867188 444.996094 495.898438 443.175781 496.886719 441.328125 C 497.875 439.480469 498.816406 437.609375 499.710938 435.714844 C 500.605469 433.820312 501.453125 431.90625 502.257812 429.972656 C 503.058594 428.035156 503.8125 426.082031 504.519531 424.109375 C 505.222656 422.136719 505.878906 420.148438 506.488281 418.144531 C 507.097656 416.140625 507.65625 414.121094 508.164062 412.089844 C 508.671875 410.058594 509.132812 408.015625 509.539062 405.960938 C 509.949219 403.90625 510.308594 401.84375 510.613281 399.769531 C 510.921875 397.699219 511.179688 395.621094 511.382812 393.535156 C 511.589844 391.449219 511.742188 389.359375 511.847656 387.269531 C 511.949219 385.175781 512 383.082031 512 380.988281 C 512 378.894531 511.949219 376.800781 511.847656 374.707031 C 511.742188 372.617188 511.589844 370.527344 511.382812 368.441406 C 511.179688 366.355469 510.921875 364.277344 510.613281 362.207031 C 510.308594 360.132812 509.949219 358.070312 509.539062 356.015625 C 509.132812 353.960938 508.671875 351.917969 508.164062 349.886719 C 507.65625 347.855469 507.097656 345.835938 506.488281 343.832031 C 505.878906 341.828125 505.222656 339.839844 504.519531 337.867188 C 503.8125 335.894531 503.058594 333.941406 502.257812 332.003906 C 501.453125 330.070312 500.605469 328.15625 499.710938 326.261719 C 498.816406 324.367188 497.875 322.496094 496.886719 320.648438 C 495.898438 318.800781 494.867188 316.980469 493.789062 315.183594 C 492.710938 313.386719 491.59375 311.617188 490.429688 309.875 C 489.265625 308.132812 488.058594 306.421875 486.808594 304.738281 C 485.5625 303.054688 484.273438 301.40625 482.945312 299.785156 C 481.617188 298.167969 480.25 296.582031 478.839844 295.027344 C 477.433594 293.476562 475.992188 291.960938 474.507812 290.480469 C 473.027344 288.996094 471.511719 287.554688 469.960938 286.144531 C 468.40625 284.738281 466.820312 283.371094 465.203125 282.042969 C 463.582031 280.714844 461.933594 279.425781 460.25 278.175781 C 458.566406 276.929688 456.855469 275.722656 455.113281 274.558594 C 453.371094 273.394531 451.601562 272.277344 449.804688 271.199219 C 448.007812 270.121094 446.1875 269.089844 444.339844 268.101562 C 442.492188 267.113281 440.621094 266.171875 438.726562 265.277344 C 436.832031 264.382812 434.917969 263.535156 432.984375 262.730469 C 431.046875 261.929688 429.09375 261.175781 427.121094 260.46875 C 425.148438 259.765625 423.160156 259.109375 421.15625 258.5 C 419.152344 257.890625 417.132812 257.332031 415.101562 256.824219 C 413.070312 256.316406 411.027344 255.855469 408.972656 255.449219 C 406.917969 255.039062 404.855469 254.679688 402.78125 254.375 C 400.710938 254.066406 398.632812 253.808594 396.546875 253.605469 C 394.460938 253.398438 392.371094 253.246094 390.28125 253.140625 C 388.1875 253.039062 386.09375 252.988281 384 252.988281 Z M 384 252.988281 " fill-opacity="1" fill-rule="nonzero"/></g></svg>