<svg xmlns="http://www.w3.org/2000/svg" xmlns:xlink="http://www.w3.org/1999/xlink" width="1024" zoomAndPan="magnify" viewBox="0 0 768 767.999994" height="1024" preserveAspectRatio="xMidYMid meet" version="1.0"><path fill="#ffffff" d="M 672 768 L 96 768 C 43.007812 768 0 724.992188 0 672 L 0 96 C 0 43.007812 43.007812 0 96 0 L 672 0 C 724.992188 0 768 43.007812 768 96 L 768 672 C 768 724.992188 724.992188 768 672 768 Z M 294.910156 579.070312 C 475.96875 579.070312 575.039062 428.929688 575.039062 298.945312 C 575.039062 294.71875 575.039062 290.496094 574.847656 286.273438 C 594.046875 272.449219 610.753906 254.976562 624 235.199219 C 606.335938 243.070312 587.328125 248.257812 567.359375 250.753906 C 587.710938 238.65625 603.265625 219.265625 610.753906 196.222656 C 591.742188 207.550781 570.625 215.617188 548.160156 220.03125 C 530.113281 200.832031 504.574219 188.929688 476.351562 188.929688 C 422.015625 188.929688 377.855469 233.089844 377.855469 287.425781 C 377.855469 295.105469 378.816406 302.59375 380.351562 309.886719 C 298.558594 305.855469 225.984375 266.496094 177.40625 206.976562 C 168.960938 221.566406 164.160156 238.464844 164.160156 256.511719 C 164.160156 290.6875 181.632812 320.832031 207.9375 338.496094 C 191.808594 337.921875 176.640625 333.503906 163.390625 326.207031 C 163.390625 326.59375 163.390625 326.976562 163.390625 327.550781 C 163.390625 375.167969 197.375 415.105469 242.304688 424.128906 C 234.046875 426.433594 225.40625 427.585938 216.382812 427.585938 C 210.046875 427.585938 203.902344 427.007812 197.953125 425.855469 C 210.433594 465.023438 246.910156 493.441406 289.921875 494.207031 C 256.128906 520.703125 213.695312 536.449219 167.617188 536.449219 C 159.742188 536.449219 151.871094 536.0625 144.191406 535.105469 C 187.585938 562.753906 239.425781 579.070312 294.910156 579.070312 " fill-opacity="1" fill-rule="nonzero"/></svg>