<svg xmlns="http://www.w3.org/2000/svg" xmlns:xlink="http://www.w3.org/1999/xlink" width="1024" zoomAndPan="magnify" viewBox="0 0 768 767.999994" height="1024" preserveAspectRatio="xMidYMid meet" version="1.0"><path fill="#ffffff" d="M 575.390625 0 L 192 0 C 86.550781 0 0 86.550781 0 192.609375 L 0 576 C 0 681.449219 86.550781 768 192 768 L 575.390625 768 C 681.449219 768 768 681.449219 768 575.390625 L 768 192.609375 C 768 86.550781 681.449219 0 575.390625 0 Z M 487.007812 384 L 414.476562 384 L 414.476562 621.714844 L 323.046875 621.714844 L 323.046875 384 L 274.285156 384 L 274.285156 286.476562 L 316.953125 286.476562 L 316.953125 245.027344 C 316.953125 206.019531 336.457031 144.457031 418.742188 144.457031 L 493.714844 144.457031 L 493.714844 225.523438 L 440.6875 225.523438 C 432.152344 225.523438 420.570312 231.007812 420.570312 249.90625 L 420.570312 286.476562 L 495.542969 286.476562 Z M 487.007812 384 " fill-opacity="1" fill-rule="nonzero"/></svg>